PathFileType	4	(X/Y/Z)	/Users/mathieubourgeois/Desktop/Analyse/Traitement/Sujet_06/Transformed_Static_Sujet_06_Tpose.trc
DataRate	CameraRate	NumFrames	NumMarkers	Units	OrigDataRate	OrigDataStartFrame	OrigNumFrames
120.000000	120.000000	4	36	mm	120.000000	63	252
Frame#	Time	RFHD			RANE			STRN			LANI			LKNE			T10			RHUM			RWRB			C7			LFWT			LTOE			RTOE			LWRA			LBWT			RBWT			RFWT			LKNI			RKNI			RKNE			LANE			RANI			LHEE			RHEE			LHUM			LRAD			RRAD			RWRA			LWRB			LFHD			LBHD			RBHD			RSHO			LSHO			CLAV			LCAR			RCAR			
		X1	Y1	Z1	X2	Y2	Z2	X3	Y3	Z3	X4	Y4	Z4	X5	Y5	Z5	X6	Y6	Z6	X7	Y7	Z7	X8	Y8	Z8	X9	Y9	Z9	X10	Y10	Z10	X11	Y11	Z11	X12	Y12	Z12	X13	Y13	Z13	X14	Y14	Z14	X15	Y15	Z15	X16	Y16	Z16	X17	Y17	Z17	X18	Y18	Z18	X19	Y19	Z19	X20	Y20	Z20	X21	Y21	Z21	X22	Y22	Z22	X23	Y23	Z23	X24	Y24	Z24	X25	Y25	Z25	X26	Y26	Z26	X27	Y27	Z27	X28	Y28	Z28	X29	Y29	Z29	X30	Y30	Z30	X31	Y31	Z31	X32	Y32	Z32	X33	Y33	Z33	X34	Y34	Z34	X35	Y35	Z35	X36	Y36	Z36	

64	0.525	-886.2407836914062	1639.318603515625	312.5956115722654	-958.9408569335938	75.36695861816408	216.3760223388671	-814.2891845703125	1234.417114257812	354.6138916015623	-763.9890747070312	77.6309280395508	224.1657562255859	-675.2522583007812	481.9097900390625	237.2878570556639	-819.9100341796875	1210.45361328125	153.4587097167967	-1264.025634765625	1407.898193359375	192.2619323730466	-1489.012573242188	1479.9873046875	200.9357299804685	-819.0330810546875	1452.53173828125	195.515914916992	-702.9028930664062	985.100341796875	328.9948730468748	-697.3518676757812	37.52954864501955	392.453399658203	-918.3705444335938	38.56517028808596	399.5946350097655	-122.4732055664063	1345.63330078125	120.5493850708007	-763.4973754882812	1010.674011230469	174.3703155517577	-870.2050170898438	1011.786010742188	181.4389038085936	-917.1296997070312	988.3826904296875	338.180206298828	-769.3744506835938	435.7315063476562	232.1880035400389	-868.1512451171875	442.0348510742188	219.1319580078124	-963.0721435546875	492.2969055175781	230.7793579101561	-683.2796630859375	69.82675933837892	202.7736053466796	-878.1146850585938	83.66883087158205	226.8619537353514	-724.577392578125	52.00942611694337	154.4378967285155	-923.0816650390625	53.91184234619141	162.3820953369139	-371.3905944824219	1361.186645507812	150.5208129882811	-364.1818237304688	1317.265014648438	196.5596771240233	-1262.888793945312	1369.998779296875	246.5529174804685	-1501.838134765625	1424.19921875	180.6481018066404	-127.1886825561524	1406.046875	117.309097290039	-740.5325317382812	1643.478637695312	311.2694702148435	-741.0680541992188	1577.7255859375	174.981964111328	-869.7750244140625	1578.933227539062	159.5768127441404	-957.3392944335938	1447.628662109375	229.1332550048826	-667.8189086914062	1434.90185546875	217.3350524902342	-812.1029663085938	1386.597534179688	314.5793151855467	-40.00160598754884	1386.590454101562	98.39071655273429	-1595.84130859375	1464.036376953125	159.3229522705075	
65	0.5333333333333333	-886.1785278320312	1639.337158203125	312.6472473144529	-958.939697265625	75.36425781250001	216.3920288085936	-814.2647705078125	1234.412475585938	354.6247558593748	-763.9896240234375	77.62924957275392	224.1743927001952	-675.2398681640625	481.9166259765625	237.2982482910155	-819.8721313476562	1210.464599609375	153.4476165771482	-1263.98193359375	1407.920654296875	192.2655487060545	-1488.9560546875	1480.042724609375	200.9550476074216	-818.9825439453125	1452.53125	195.5467987060545	-702.8577880859375	985.0869140625	328.9689025878905	-697.3585815429688	37.51329803466799	392.4481506347655	-918.3533935546875	38.55818939208987	399.5826416015624	-122.4265899658203	1345.6220703125	120.5568313598632	-763.459716796875	1010.666320800781	174.3597412109374	-870.1714477539062	1011.800415039062	181.4036560058592	-917.1129150390625	988.3881225585938	338.1474304199217	-769.3629760742188	435.7463989257812	232.220245361328	-868.1337280273438	442.0361633300781	219.142120361328	-963.0460815429688	492.2998352050781	230.7759857177733	-683.2805786132812	69.82698059082033	202.7627868652343	-878.10546875	83.67687988281251	226.8640289306639	-724.5820922851562	52.00292205810548	154.4295654296874	-923.0823974609375	53.91088104248048	162.3942565917968	-371.3322448730469	1361.171875	150.5485687255858	-364.1343078613281	1317.251708984375	196.5850677490233	-1262.839599609375	1370.00341796875	246.5480804443357	-1501.796508789062	1424.249633789062	180.6635742187497	-127.1501770019531	1406.02880859375	117.2929763793944	-740.456787109375	1643.465698242188	311.3075866699216	-741.011474609375	1577.736572265625	175.0243682861326	-869.7189331054688	1578.94091796875	159.6302642822264	-957.289306640625	1447.639770507812	229.1587829589842	-667.7623901367188	1434.893676757812	217.3437042236326	-812.0618286132812	1386.592041015625	314.6105957031248	-39.96900939941408	1386.571899414062	98.37698364257804	-1595.795776367188	1464.102661132812	159.3315124511716	
66	0.5416666666666666	-886.1149291992188	1639.344116210938	312.7081909179685	-958.9378051757812	75.36988067626955	216.3678436279296	-814.2360229492188	1234.397583007812	354.6112976074217	-763.9902954101562	77.64394378662111	224.1490783691405	-675.2155151367188	481.9167175292969	237.3042907714843	-819.8247680664062	1210.471801757812	153.4603118896482	-1263.944091796875	1407.932495117188	192.261032104492	-1488.897583007812	1480.08251953125	200.9745483398435	-818.92041015625	1452.539306640625	195.5850219726561	-702.841552734375	985.1080322265625	328.9764404296873	-697.3524169921875	37.52174377441408	392.4468994140624	-918.359375	38.55848693847658	399.5866699218749	-122.3855285644531	1345.614990234375	120.555435180664	-763.4113159179688	1010.658447265625	174.3353424072264	-870.1351318359375	1011.80712890625	181.3802337646483	-917.0922241210938	988.3967895507812	338.1309814453123	-769.34765625	435.7445373535156	232.2193603515624	-868.1112670898438	442.0424499511719	219.1346588134764	-963.0333251953125	492.3042907714844	230.7652587890624	-683.2693481445312	69.8184051513672	202.7831115722655	-878.100830078125	83.67644500732423	226.8656616210936	-724.5669555664062	52.00445175170899	154.4287109374999	-923.0692749023438	53.90219879150391	162.3870086669921	-371.2872314453125	1361.1640625	150.5663604736327	-364.0904235839844	1317.24365234375	196.590362548828	-1262.80517578125	1370.016967773438	246.550094604492	-1501.746337890625	1424.300903320312	180.6791076660154	-127.1012649536133	1406.0322265625	117.3086929321288	-740.3981323242188	1643.465698242188	311.3719482421873	-740.9575805664062	1577.745849609375	175.0649261474608	-869.6593017578125	1578.96728515625	159.6737518310545	-957.2456665039062	1447.662231445312	229.1887207031248	-667.7067260742188	1434.888916015625	217.3702087402342	-812.0125732421875	1386.583129882812	314.6183166503905	-39.93059158325197	1386.556030273438	98.35214233398429	-1595.7412109375	1464.1806640625	159.3504638671872	
67	0.55	-886.0607299804688	1639.3564453125	312.7679748535154	-958.9373779296875	75.37657165527345	216.3775939941405	-814.2028198242188	1234.393432617188	354.6084594726561	-763.9830322265625	77.63412475585939	224.165054321289	-675.2045288085938	481.9229736328125	237.3147583007811	-819.8056640625	1210.49609375	153.459518432617	-1263.888427734375	1407.958129882812	192.2703552246091	-1488.846801757812	1480.121826171875	200.9907684326169	-818.8598022460938	1452.555053710938	195.6206970214842	-702.8153076171875	985.0736083984375	328.9519042968748	-697.3502807617188	37.52283477783205	392.4497680664061	-918.3599853515625	38.56090545654299	399.5794677734374	-122.3331909179688	1345.620727539062	120.5576705932616	-763.3878784179688	1010.655334472656	174.3204498291014	-870.0885009765625	1011.796203613281	181.352828979492	-917.0682373046875	988.4014892578125	338.0879516601561	-769.3291015625	435.7486877441406	232.2352142333983	-868.0977172851562	442.0282287597656	219.1425018310545	-963.0113525390625	492.3080749511719	230.7347717285155	-683.2736206054688	69.82272338867189	202.7811889648437	-878.1013793945312	83.67400360107423	226.8638153076171	-724.572509765625	51.99971008300782	154.4398803710937	-923.067138671875	53.91231918334962	162.3884429931639	-371.2313537597656	1361.165649414062	150.5709991455077	-364.0456848144531	1317.231079101562	196.5987243652342	-1262.765258789062	1370.01806640625	246.517395019531	-1501.700927734375	1424.351440429688	180.6787261962888	-127.0598526000977	1406.0185546875	117.3009643554687	-740.33984375	1643.469360351562	311.4337463378904	-740.9046630859375	1577.762084960938	175.0953369140623	-869.6137084960938	1578.979248046875	159.7253265380857	-957.199462890625	1447.6884765625	229.1850891113279	-667.6538696289062	1434.886108398438	217.3981475830076	-811.9655151367188	1386.583862304688	314.6349792480467	-39.90409088134767	1386.556640625	98.33913421630851	-1595.692749023438	1464.267700195312	159.3485870361325	
